<?xml version="1.0" standalone="no"?>
<!DOCTYPE svg PUBLIC "-//W3C//DTD SVG 20010904//EN"
 "http://www.w3.org/TR/2001/REC-SVG-20010904/DTD/svg10.dtd">
<svg version="1.0" xmlns="http://www.w3.org/2000/svg"
 width="256.000000pt" height="256.000000pt" viewBox="0 0 256.000000 256.000000"
 preserveAspectRatio="xMidYMid meet">
<metadata>
Created by potrace 1.16, written by Peter Selinger 2001-2019
</metadata>
<g transform="translate(0.000000,256.000000) scale(0.100000,-0.100000)"
fill="#000000" stroke="none">
<path d="M1082 2023 c-35 -7 -90 -68 -102 -115 -14 -49 -7 -91 20 -135 23 -38
27 -39 59 -12 24 20 24 21 8 49 -24 39 -21 74 7 107 23 27 29 28 144 34 99 5
126 10 155 28 19 12 38 28 41 36 5 13 -17 15 -152 14 -86 -1 -167 -4 -180 -6z"/>
<path d="M1447 1995 c-51 -18 -83 -49 -103 -100 -21 -56 -16 -89 14 -93 30 -5
48 11 55 48 9 42 41 70 81 70 33 0 47 -8 167 -92 55 -38 58 -39 112 -31 l56 8
-110 80 c-111 80 -190 125 -219 124 -8 0 -32 -6 -53 -14z"/>
<path d="M850 1892 c-160 -125 -172 -139 -178 -206 -6 -74 24 -139 79 -166 21
-11 45 -20 52 -20 19 0 32 63 15 69 -31 10 -68 60 -68 91 0 47 12 63 99 130
63 49 83 71 101 111 38 90 24 89 -100 -9z"/>
<path d="M1124 1917 c-10 -5 -20 -11 -21 -12 -2 -1 4 -20 13 -42 15 -38 15
-43 -1 -77 -11 -22 -42 -54 -81 -83 -35 -25 -65 -52 -68 -60 -8 -19 5 -73 17
-73 22 0 195 151 208 182 38 91 -6 198 -67 165z"/>
<path d="M1480 1848 c-21 -60 -60 -78 -167 -78 -81 0 -83 0 -98 -30 -8 -16
-15 -33 -15 -39 0 -6 46 -8 128 -4 145 6 174 17 210 81 27 49 28 88 3 102 -34
18 -46 11 -61 -32z"/>
<path d="M1704 1751 c-40 -18 -74 -54 -74 -77 0 -6 12 -20 27 -29 25 -17 27
-17 42 3 36 45 93 51 133 15 9 -8 31 -59 49 -112 28 -84 38 -102 81 -143 28
-27 54 -48 59 -48 4 0 -17 73 -47 163 -60 177 -87 219 -154 237 -49 14 -69 12
-116 -9z"/>
<path d="M795 1710 c-19 -21 -14 -50 8 -50 7 0 23 -10 35 -23 28 -29 28 -72 2
-157 -26 -86 -25 -101 8 -133 l28 -27 32 118 c45 166 43 192 -21 260 -35 37
-66 41 -92 12z"/>
<path d="M1472 1682 l-33 -18 88 -61 c148 -101 172 -109 250 -74 62 29 79 77
38 111 -12 10 -21 6 -46 -19 -44 -45 -72 -41 -164 24 -44 30 -84 55 -90 55 -5
-1 -25 -9 -43 -18z"/>
<path d="M627 1653 c-9 -14 -62 -184 -83 -267 -22 -84 -12 -129 41 -181 49
-49 102 -64 160 -45 19 6 35 13 35 14 0 2 -5 17 -11 33 -10 29 -13 31 -59 29
-54 -1 -85 19 -95 63 -3 16 5 63 20 114 14 48 25 109 24 135 -1 54 -22 122
-32 105z"/>
<path d="M1185 1651 c-127 -33 -208 -138 -208 -266 0 -53 30 -155 46 -155 3 0
0 19 -5 43 -30 129 31 271 138 322 56 26 159 18 213 -18 66 -44 95 -97 99
-181 3 -64 0 -76 -27 -123 -25 -41 -45 -60 -101 -93 -88 -51 -120 -100 -120
-181 0 -31 6 -63 13 -74 13 -17 14 -16 20 11 19 87 82 130 209 141 l83 8 0 60
c0 33 4 66 9 73 4 7 5 16 2 19 -3 3 3 17 14 30 19 24 19 25 -10 72 -16 26 -39
77 -50 113 -24 78 -80 146 -144 177 -51 23 -136 34 -181 22z"/>
<path d="M1163 1570 c-24 -10 -43 -21 -43 -24 0 -7 116 -76 129 -76 6 0 36 16
66 36 63 40 62 55 -4 74 -54 15 -101 12 -148 -10z"/>
<path d="M1076 1495 c-43 -66 -42 -171 3 -227 31 -37 46 -11 21 37 -22 44 -25
96 -7 137 17 38 42 23 27 -16 -19 -51 -4 -121 24 -110 12 4 14 16 10 47 -3 23
-1 48 4 56 18 25 32 0 32 -55 0 -30 4 -54 8 -54 20 0 32 28 32 76 0 52 0 52
-47 80 -27 15 -58 33 -69 41 -19 12 -23 11 -38 -12z"/>
<path d="M1337 1479 l-67 -40 0 -57 0 -58 65 -38 c35 -21 68 -35 73 -32 13 8
42 71 42 90 0 9 -8 16 -20 16 -12 0 -20 -7 -20 -17 -1 -43 -16 -47 -64 -19
-38 22 -46 32 -46 56 0 23 9 35 37 55 48 32 59 32 72 -5 6 -17 17 -30 27 -30
13 0 15 6 10 32 -3 17 -14 44 -24 59 l-18 28 -67 -40z"/>
<path d="M1669 1381 c45 -129 60 -155 104 -181 45 -28 122 -27 137 1 7 11 9
31 6 43 -4 18 -11 21 -50 18 -60 -5 -84 20 -115 118 -28 89 -34 96 -84 105
l-37 7 39 -111z"/>
<path d="M1810 1399 c-32 -13 -32 -11 -19 -48 11 -30 14 -32 44 -27 46 9 83
-8 101 -47 15 -32 15 -39 -10 -125 -28 -98 -32 -167 -12 -222 l13 -35 12 25
c26 60 84 279 84 320 1 56 -22 101 -68 136 -39 29 -105 40 -145 23z"/>
<path d="M652 1368 c-13 -13 -15 -37 -7 -60 4 -9 18 -12 45 -10 64 6 85 -15
116 -113 28 -89 48 -115 91 -115 31 0 29 13 -13 128 -43 117 -55 137 -97 162
-36 22 -116 27 -135 8z"/>
<path d="M1183 1262 c-35 -20 -63 -40 -63 -43 0 -16 87 -43 135 -42 51 1 115
25 115 42 0 7 -116 82 -123 81 -1 -1 -30 -18 -64 -38z"/>
<path d="M1662 1158 c-51 -174 -50 -226 9 -293 38 -43 71 -46 96 -8 17 25 17
27 -1 37 -54 32 -66 48 -66 84 0 20 9 66 20 102 11 36 20 74 20 86 0 18 -37
64 -52 64 -3 0 -15 -33 -26 -72z"/>
<path d="M555 1123 c76 -246 109 -302 186 -323 56 -15 106 -3 151 38 45 41 47
54 12 77 -25 16 -27 16 -55 -11 -35 -33 -87 -38 -118 -10 -11 10 -34 62 -52
115 -28 84 -38 102 -81 144 -28 26 -54 47 -58 47 -5 0 2 -35 15 -77z"/>
<path d="M1735 1028 c-6 -23 -4 -33 6 -37 31 -10 69 -60 69 -91 0 -47 -13 -64
-99 -129 -63 -48 -82 -69 -100 -111 -38 -89 -25 -89 89 0 127 99 157 127 176
162 36 69 1 184 -67 218 -53 28 -66 25 -74 -12z"/>
<path d="M785 1033 c-68 -35 -80 -63 -46 -104 l18 -23 33 32 c45 46 71 42 168
-25 l83 -56 34 16 c19 9 35 20 35 24 0 8 -167 122 -207 142 -31 15 -83 13
-118 -6z"/>
<path d="M1520 953 c-148 -121 -177 -163 -165 -237 10 -59 22 -76 53 -76 47 0
56 13 38 48 -32 62 -17 94 79 168 28 21 55 44 62 52 12 14 8 69 -6 84 -3 3
-31 -14 -61 -39z"/>
<path d="M1120 858 c-86 -24 -156 -148 -101 -178 34 -18 50 -12 56 23 13 69
46 87 159 87 64 0 88 4 100 16 9 8 16 19 16 24 0 5 3 15 6 24 5 14 -7 16 -97
15 -57 0 -120 -5 -139 -11z"/>
<path d="M1503 801 c-22 -18 -22 -21 -8 -55 21 -49 19 -70 -9 -103 -23 -27
-29 -28 -138 -34 -115 -5 -142 -14 -198 -58 l-25 -21 168 0 c196 0 232 11 267
79 32 64 35 109 8 161 -27 52 -35 56 -65 31z"/>
<path d="M738 764 c-7 -7 142 -122 234 -180 78 -50 174 -31 225 44 25 38 40
109 25 124 -15 15 -62 1 -68 -20 -19 -59 -30 -76 -58 -87 -39 -17 -59 -9 -163
62 -69 47 -91 57 -135 61 -29 2 -56 1 -60 -4z"/>
</g>
</svg>
